# xmcd CD database file
#
# Track frame offsets:
#	150
#	21852
#	40329
#	67706
#	89858
#	111060
#	147462
#
# Disc length: 2480 seconds
#
# Revision: 0
# Processed by: cddbd v1.5.1PL0 Copyright (c) Steve Scherf et al.
# Submitted via: CDex 1.51
#
DISCID=5e09ae07
DTITLE=Tintenfisch - Live´85
DYEAR=1985
DGENRE=Blues
TTITLE0=Talking and Grooving
TTITLE1=Got it
TTITLE2=So Many Roads
TTITLE3=Hink A Honk, Johnny
TTITLE4=Rocikng Blue
TTITLE5=Blue Mouse
TTITLE6=Nakki Sämpylä
EXTD=YEAR: 1985
EXTT0=
EXTT1=
EXTT2=
EXTT3=
EXTT4=
EXTT5=
EXTT6=
PLAYORDER=
